<svg width="19" height="19" viewBox="0 0 19 19" fill="none" xmlns="http://www.w3.org/2000/svg">
<path fill-rule="evenodd" clip-rule="evenodd" d="M0.231796 6.52232C-0.026647 6.71926 -0.0765301 7.08844 0.120379 7.34692C0.317288 7.6054 0.686423 7.65529 0.944866 7.45835L1.40679 7.10636L2.15032 17.5114C2.17232 17.8192 2.4285 18.0578 2.73716 18.0578H15.2477C15.5563 18.0578 15.8125 17.8192 15.8345 17.5114L16.5842 7.02043L17.1716 7.46104C17.4315 7.65601 17.8002 7.60333 17.9952 7.34337C18.1901 7.0834 18.1375 6.71461 17.8775 6.51963L9.34274 0.117676C9.13225 -0.0402163 8.84252 -0.039119 8.63322 0.120364L0.231796 6.52232Z" fill="url(#paint0_linear_11_1142)"/>
<defs>
<linearGradient id="paint0_linear_11_1142" x1="9.05644" y1="0" x2="9.05644" y2="18.0578" gradientUnits="userSpaceOnUse">
<stop stop-color="#4C9EE2"/>
<stop offset="1" stop-color="#73BFFF"/>
</linearGradient>
</defs>
</svg>
